<!-- Generated by IcoMoon.io -->
<svg version="1.1" xmlns="http://www.w3.org/2000/svg" width="1024" height="1024" viewBox="0 0 1024 1024">
<title></title>
<g id="icomoon-ignore">
</g>
<path fill="#007396" d="M377.643 791.893c0 0-39.125 22.784 27.861 30.464 81.152 9.301 122.624 7.979 212.011-9.003 0 0 23.552 14.763 56.363 27.563-200.491 85.888-453.675-5.035-296.235-49.024zM353.109 679.808c0 0-43.861 32.469 23.125 39.424 86.699 8.917 155.136 9.685 273.621-13.141 0 0 16.384 16.597 42.112 25.685-242.304 70.869-512.299 5.547-338.859-51.968zM559.616 489.6c49.408 56.875-12.971 108.075-12.971 108.075s125.397-64.768 67.797-145.835c-53.803-75.605-95.061-113.152 128.299-242.688 0-0.043-350.549 87.509-183.125 280.448zM824.747 874.837c0 0 28.971 23.851-31.872 42.283-115.712 35.072-481.621 45.611-583.211 1.408-36.523-15.915 32-37.973 53.504-42.581 22.485-4.864 35.328-3.968 35.328-3.968-40.661-28.629-262.656 56.192-112.768 80.512 408.747 66.261 745.045-29.867 639.019-77.653zM396.459 563.627c0 0-186.112 44.203-65.877 60.245 50.731 6.784 151.936 5.248 246.187-2.645 77.056-6.485 154.368-20.352 154.368-20.352s-27.179 11.605-46.848 25.045c-188.971 49.707-554.069 26.581-448.939-24.235 88.832-42.923 161.109-38.059 161.109-38.059zM730.283 750.251c192.128-99.84 103.296-195.797 41.301-182.827-15.147 3.157-21.973 5.888-21.973 5.888s5.632-8.832 16.427-12.672c122.667-43.136 217.003 127.189-39.595 194.645 0-0.043 2.987-2.645 3.84-5.035zM614.443 0c0 0 106.411 106.411-100.907 270.080-166.229 131.285-37.888 206.165-0.043 291.669-97.024-87.595-168.235-164.608-120.491-236.331 70.144-105.344 264.405-156.373 221.44-325.419zM415.317 1020.757c184.405 11.819 467.584-6.528 474.283-93.781 0 0-12.885 33.067-152.405 59.349-157.355 29.611-351.531 26.155-466.645 7.168 0-0.043 23.595 19.499 144.768 27.264z"></path>
</svg>
