<!-- Generated by IcoMoon.io -->
<svg version="1.1" xmlns="http://www.w3.org/2000/svg" width="1024" height="1024" viewBox="0 0 1024 1024">
<title></title>
<g id="icomoon-ignore">
</g>
<path fill="#4479a1" d="M699.947 242.176c-4.907 0-8.235 0.597-11.691 1.408v0.555h0.597c2.304 4.437 6.229 7.68 9.131 11.648 2.304 4.565 4.267 9.131 6.571 13.653l0.597-0.64c4.011-2.816 5.973-7.339 5.973-14.208-1.707-2.005-1.963-4.011-3.413-5.973-1.707-2.859-5.376-4.267-7.765-6.443zM246.187 805.12h-39.552c-1.28-66.645-5.248-129.28-11.52-188.16h-0.341l-60.16 188.16h-30.080l-59.733-188.16h-0.427c-4.395 56.448-7.168 119.168-8.32 188.16h-36.053c2.347-83.883 8.192-162.56 17.493-235.947h49.067l56.96 173.397h0.341l57.472-173.397h46.72c10.325 85.973 16.384 164.693 18.133 235.947zM417.579 631.040c-16.128 87.253-37.376 150.741-63.659 190.293-20.565 30.549-43.093 45.781-67.541 45.781-6.528 0-14.507-1.963-24.149-5.888v-21.077c4.693 0.725 10.24 1.109 16.469 1.109 11.435 0 20.608-3.2 27.605-9.472 8.405-7.68 12.587-16.299 12.587-25.813 0-6.613-3.285-20.053-9.813-40.277l-43.264-134.656h38.827l31.019 100.693c6.997 22.869 9.941 38.827 8.747 47.915 17.067-45.397 28.928-95.019 35.627-148.608zM943.445 805.12h-112.213v-235.947h37.76v206.933h74.453zM801.792 810.88l-43.349-21.333c3.84-3.243 7.552-6.741 10.88-10.667 18.475-21.589 27.648-53.675 27.648-96.128 0-78.080-30.635-117.163-91.947-117.163-30.037 0-53.504 9.899-70.4 29.739-18.347 21.675-27.563 53.589-27.563 95.787 0 41.472 8.107 71.936 24.491 91.307 14.933 17.493 37.419 26.24 67.541 26.24 11.264 0 21.589-1.408 30.933-4.181l56.533 32.939zM661.333 757.888c-9.6-15.36-14.379-40.107-14.379-74.069 0-59.435 18.091-89.173 54.187-89.173 18.901 0 32.853 7.125 41.685 21.333 9.557 15.445 14.336 39.936 14.336 73.515 0 59.904-18.091 89.941-54.187 89.941-18.987 0-32.853-7.125-41.643-21.547zM590.592 739.755c0 20.053-7.339 36.523-22.016 49.323s-34.261 19.2-59.051 19.2c-23.168 0-45.397-7.339-67.115-21.973l10.112-20.309c18.688 9.387 35.541 13.995 50.773 13.995 14.165 0 25.301-3.115 33.408-9.387 8.021-6.272 12.8-15.104 12.8-26.24 0-14.080-9.813-26.027-27.648-36.053-16.555-9.088-49.621-28.032-49.621-28.032-18.005-13.099-26.965-27.136-26.965-50.219 0-19.2 6.699-34.56 20.053-46.293 13.44-11.861 30.72-17.707 52.053-17.707 21.845 0 41.813 5.803 59.733 17.493l-9.088 20.309c-15.36-6.485-30.507-9.813-45.397-9.813-12.075 0-21.419 2.901-27.904 8.789-6.528 5.803-10.581 13.227-10.581 22.357 0 13.995 9.984 26.027 28.416 36.267 16.768 9.173 50.645 28.587 50.645 28.587 18.475 13.013 27.648 26.88 27.392 49.707zM990.891 490.069c-22.827-0.597-40.533 1.707-55.339 8.021-4.267 1.707-11.093 1.707-11.691 7.125 2.347 2.261 2.688 5.973 4.693 9.131 3.413 5.717 9.301 13.355 14.763 17.365 5.973 4.693 11.947 9.216 18.219 13.227 11.093 6.827 23.68 10.88 34.56 17.749 6.187 4.011 12.501 9.088 18.773 13.355 3.115 2.133 5.12 5.973 9.131 7.339v-0.853c-1.963-2.56-2.56-6.272-4.48-9.131-2.859-2.859-5.717-5.419-8.533-8.235-8.277-11.093-18.56-20.779-29.653-28.8-9.131-6.229-29.099-14.933-32.853-25.387l-0.555-0.597c6.229-0.555 13.653-2.816 19.627-4.523 9.685-2.56 18.56-2.005 28.587-4.523 4.523-1.152 9.088-2.56 13.653-4.011v-2.56c-5.12-5.12-8.96-12.075-14.251-16.853-14.507-12.587-30.592-24.832-47.104-35.115-8.96-5.717-20.309-9.387-29.739-14.251-3.413-1.707-9.131-2.56-11.093-5.419-5.12-6.229-8.107-14.507-11.733-21.931-8.192-15.701-16.213-33.067-23.339-49.621-5.12-11.179-8.235-22.315-14.507-32.555-29.44-48.512-61.312-77.909-110.336-106.667-10.539-5.973-23.168-8.533-36.523-11.691-7.125-0.341-14.251-0.853-21.333-1.152-4.693-2.005-9.216-7.424-13.227-10.027-16.213-10.24-58.197-32.427-70.144-3.072-7.68 18.517 11.392 36.779 18.005 46.165 4.907 6.528 11.093 13.995 14.507 21.333 2.005 4.949 2.56 10.027 4.565 15.189 4.523 12.544 8.832 26.539 14.805 38.272 3.115 5.973 6.528 12.245 10.539 17.621 2.304 3.115 6.229 4.565 7.125 9.685-4.011 5.803-4.267 14.251-6.571 21.333-10.24 32.299-6.229 72.235 8.277 96 4.565 7.083 15.445 22.784 29.995 16.768 12.8-5.12 9.984-21.333 13.653-35.627 0.853-3.413 0.299-5.675 2.048-7.979v0.64c4.011 8.021 8.021 15.659 11.691 23.68 8.789 13.995 24.149 28.501 36.992 38.187 6.827 5.12 12.245 13.995 20.779 17.152v-0.853h-0.64c-1.835-2.475-4.267-3.669-6.571-5.675-5.12-5.12-10.88-11.392-14.933-17.067-11.947-16.085-22.485-33.707-31.872-51.968-4.693-8.96-8.619-18.603-12.373-27.435-1.707-3.413-1.707-8.533-4.565-10.24-4.267 6.229-10.539 11.648-13.653 19.328-5.419 12.288-5.973 27.392-8.021 43.093-1.152 0.299-0.597 0-1.152 0.597-9.131-2.219-12.245-11.691-15.659-19.627-8.533-20.267-9.941-52.821-2.56-76.16 2.005-5.973 10.539-24.832 7.125-30.549-1.792-5.419-7.424-8.533-10.539-12.928-3.712-5.291-7.68-12.16-10.24-18.219-6.827-15.957-10.24-33.621-17.664-49.579-3.413-7.381-9.387-15.104-14.251-21.888-5.419-7.68-11.392-13.099-15.701-22.187-1.408-3.115-3.413-8.277-1.152-11.691 0.597-2.304 1.792-3.2 4.011-3.84 3.755-3.072 14.293 0.939 18.005 2.645 10.539 4.267 19.413 8.277 28.245 14.251 4.011 2.816 8.32 8.235 13.44 9.643h5.973c9.131 2.005 19.413 0.597 27.947 3.115 15.147 4.864 28.8 11.947 41.045 19.627 37.376 23.723 68.096 57.387 88.96 97.536 3.413 6.571 4.907 12.587 8.021 19.413 5.973 14.080 13.355 28.288 19.413 41.899 5.973 13.44 11.733 27.136 20.309 38.272 4.267 5.973 21.419 9.088 29.099 12.203 5.675 2.56 14.507 4.907 19.627 8.021 9.813 5.973 19.371 12.8 28.587 19.371 4.693 3.243 18.901 10.368 19.755 16.128z"></path>
</svg>
